<?xml version="1.0" encoding="UTF-8"?>
<svg id="Layer_2" data-name="Layer 2" xmlns="http://www.w3.org/2000/svg" xmlns:xlink="http://www.w3.org/1999/xlink" viewBox="0 0 1882.27 157.67">
  <defs>
    <style>
      .cls-1 {
        fill: #008cff;
      }

      .cls-2 {
        fill: #fff;
      }

      .cls-3 {
        fill: #0062a5;
      }

      .cls-4 {
        fill: none;
      }

      .cls-5 {
        clip-path: url(#clippath-1);
      }

      .cls-6 {
        fill: #bfbfbf;
      }

      .cls-7 {
        fill: #282828;
      }

      .cls-8 {
        clip-path: url(#clippath-2);
      }

      .cls-9 {
        clip-path: url(#clippath);
      }

      .cls-10 {
        fill: #e8e8e8;
      }
    </style>
    <clipPath id="clippath">
      <path class="cls-4" d="M71.06,102.92h98.04l-5.75,20.64H29.79l23.41-85.62c.96-2.4,2.16-4.4,3.59-6.01,1.44-1.61,3.04-2.99,4.83-4.16,1.98-1.3,4.17-2.31,6.57-3.03,2.39-.72,4.89-1.28,7.49-1.69h115.29l-6.06,21.66h-75.66c-1.71,0-3.22.09-4.52.26-1.3.17-2.43.53-3.39,1.08-2.05,1.1-3.63,3.36-4.72,6.79l-12.22,45.46-13.35,4.63ZM333.57,43.68l-21.97,79.87h-47.64l11.19-40.76h-52.36l13.04,3.8-10.06,36.96h-47.64l23.41-85.62c.96-2.4,2.14-4.4,3.54-6.01,1.4-1.61,2.99-2.99,4.77-4.16,1.98-1.3,4.19-2.31,6.62-3.03,2.43-.72,4.94-1.28,7.55-1.69h115.29l-5.75,20.63ZM294.97,44.71h-37.37c-1.71,0-3.22.09-4.52.26-1.3.17-2.43.54-3.39,1.08-2.19,1.1-3.76,3.37-4.72,6.81l-2.67,9.81h38.4l4.21-15.59,10.06-2.37ZM481.81,45.02l-7.8,28.75c-.82,2.53-1.95,4.48-3.39,5.85-1.85,1.85-4.86,2.87-9.03,3.08h-6.78l15.5,40.86h-47.74l-15.5-40.96-33.16.21,10.16,4.93-9.75,35.83h-47.74l27.41-99.99h112.93c5.89.14,10.2,1.99,12.94,5.54,1.5,1.92,2.45,4.23,2.82,6.93.38,2.7.08,5.7-.87,8.98ZM445.78,43.89h-49.69l-5.13,18.99h5.65l.1-.1h32.54l3.8-13.55,12.73-5.34Z"/>
    </clipPath>
    <clipPath id="clippath-1">
      <path class="cls-4" d="M628.72,46.46c1.03-3.9,2.05-7.75,3.08-11.55s2.09-7.65,3.18-11.55h-133.67l-27.51,100.2h47.74l11.29-41.27h69.6c3.01,0,5.94-.85,8.78-2.57,2.84-1.71,5.32-3.8,7.44-6.26,1.23-1.37,2.27-2.82,3.13-4.36.85-1.54,1.52-3.1,2-4.67l4.93-17.96ZM580.57,48l-2.46,9.04c-.34,1.16-.72,2.07-1.13,2.72-.41.65-.89,1.15-1.44,1.49-1.03.69-2.23,1.03-3.59,1.03h-33.67l5.13-18.58h51.54l-14.37,4.31ZM784.05,23.05h-115.29c-2.6.41-5.12.97-7.55,1.69-2.43.72-4.64,1.73-6.62,3.03-1.78,1.16-3.37,2.55-4.77,4.16-1.4,1.61-2.58,3.61-3.54,6.01l-23.41,85.62h47.64l10.06-36.96-13.04-3.8h52.36l-11.19,40.76h47.64l21.97-79.87,5.75-20.63ZM729.64,47.09l-4.21,15.59h-38.39l2.67-9.81c.96-3.44,2.53-5.71,4.72-6.81.96-.55,2.09-.91,3.39-1.08,1.3-.17,2.81-.26,4.52-.26h37.37l-10.06,2.37ZM924.59,29.11c-2.74-3.56-7.05-5.41-12.94-5.54h-112.93l-27.41,99.99h47.74l9.75-35.83-10.16-4.93,33.16-.21,15.5,40.96h47.74l-15.5-40.86h6.78c4.17-.21,7.19-1.23,9.04-3.08,1.44-1.37,2.57-3.32,3.39-5.85l7.8-28.75c.96-3.28,1.25-6.28.87-8.98-.38-2.7-1.32-5.01-2.82-6.93ZM877.78,49.23l-3.8,13.55h-32.54l-.1.1h-5.65l5.13-18.99h49.69l-12.73,5.34ZM1074.28,22.74l-5.85,21.05h-37.16l-21.87,79.77h-47.74l20.64-75.15,14.37-4.62h-60.88l5.65-21.05h132.85Z"/>
    </clipPath>
    <clipPath id="clippath-2">
      <path class="cls-4" d="M1208.76,46.46c1.03-3.9,2.05-7.75,3.08-11.55,1.03-3.8,2.09-7.65,3.18-11.55h-133.67l-27.51,100.2h47.74l11.29-41.27h69.6c3.01,0,5.94-.85,8.78-2.57,2.84-1.71,5.32-3.8,7.44-6.26,1.23-1.37,2.28-2.82,3.13-4.36.85-1.54,1.52-3.1,2-4.67l4.93-17.96ZM1160.61,48l-2.46,9.04c-.34,1.16-.72,2.07-1.13,2.72-.41.65-.89,1.15-1.44,1.49-1.03.69-2.23,1.03-3.59,1.03h-33.67l5.13-18.58h51.54l-14.37,4.31ZM1278.06,23.46l-27.51,100.09h-47.64l27.51-100.09h47.64ZM1307.21,102.92h98.04l-5.75,20.64h-133.56l23.41-85.62c.96-2.4,2.16-4.4,3.59-6.01,1.44-1.61,3.04-2.99,4.82-4.16,1.98-1.3,4.17-2.31,6.57-3.03,2.4-.72,4.89-1.28,7.5-1.69h115.29l-6.06,21.66h-75.66c-1.71,0-3.22.09-4.52.26-1.3.17-2.43.53-3.39,1.08-2.05,1.1-3.63,3.36-4.72,6.79l-12.22,45.46-13.35,4.63ZM1512.74,73.25l31,50.3h-47.74l-23.51-38.29-10.78-2.67,9.75,6.47-9.44,34.49h-47.74l27.51-100.2h47.64l-7.6,27.72,28.64-27.72h53.18l-50.92,49.89ZM1589.74,102.92h95.78l-5.75,20.64h-133.46l23.41-85.62c.96-2.4,2.14-4.4,3.54-6.01,1.4-1.61,2.99-2.99,4.77-4.16,1.98-1.3,4.17-2.31,6.57-3.03,2.4-.72,4.89-1.28,7.49-1.69h115.29l-6.06,21.66h-75.66c-1.71,0-3.22.09-4.52.26-1.3.17-2.43.54-3.39,1.08-1.09.55-2.02,1.38-2.77,2.48-.75,1.1-1.37,2.55-1.85,4.34l-2.57,9.4h85.93l-5.54,20.02h-85.83l-4.52,16.84-10.88,3.8ZM1845.73,36.04c-.38-2.7-1.32-5.01-2.82-6.93-2.74-3.56-7.05-5.41-12.94-5.54h-112.93l-27.41,99.99h47.74l9.75-35.83-10.16-4.93,33.16-.21,15.5,40.96h47.74l-15.5-40.86h6.78c4.17-.21,7.19-1.23,9.04-3.08,1.44-1.37,2.57-3.32,3.39-5.85l7.8-28.75c.96-3.28,1.25-6.28.87-8.98ZM1796.09,49.23l-3.8,13.55h-32.54l-.1.1h-5.65l5.13-18.99h49.69l-12.73,5.34Z"/>
    </clipPath>
  </defs>
  <g id="Layer_1-2" data-name="Layer 1">
    <path class="cls-1" d="M1787.4,157.67l-4.3-11.37h-11.07l-3.1,11.37h-268.45l-4.78-7.79-2.13,7.79h-301.59l3.13-11.37h-22.03l8.22-29.9h-36.88l-11.29,41.27h-90.2l3.12-11.37h-2l-3.12,11.37h-171.83l-4.3-11.37h-11.07l-3.09,11.37h-238.64l3.11-11.37h-22.01l8.17-29.9h-36.88l-11.29,41.27h-128.72l-4.3-11.37h-11.07l-3.09,11.37H18.9l3.11-11.37H0L31.6,30.7l.47-1.19c1.94-4.87,4.55-9.15,7.75-12.73,2.77-3.1,5.92-5.81,9.35-8.05,3.8-2.49,8.01-4.44,12.48-5.78,3.35-1,6.87-1.8,10.47-2.37l1.78-.28h147.04l-.06.22,1.37-.22h146l-.13.51h99.28c6.22.15,11.4,1.39,15.66,3.15l.92-3.35h181.01,0c.07,0,2-.31,2-.31h145.97l-.12.51h99.31c3.97.1,7.71.63,11.2,1.6l.65-2.42h180.21l-.17.62h141l-.03.1h62.48c.27-.05,2.58-.41,2.58-.41h147.03l-.09.31h131.39c.57-.09,1.93-.31,1.93-.31h147.05l-.14.51h93.23c16.32.38,25.59,8.05,30.48,14.42,1.49,1.89,2.79,3.99,3.89,6.25,4,2.23,7.49,5.22,10.23,8.79,3.66,4.66,5.99,10.27,6.87,16.59.77,5.52.28,11.34-1.43,17.32l-7.89,29.07-.15.48c-1.86,5.72-4.75,10.51-8.61,14.23-.88.87-1.83,1.68-2.83,2.43l17.94,47.28h-91.53ZM1402.62,80.18l.37-1.36h-36.42l-.37,1.36h36.41ZM166.42,80.18l.37-1.36h-36.37l-.36,1.36h36.37Z"/>
    <path class="cls-2" d="M1863.79,90.92l.09-.26,7.85-28.92c1.38-4.78,1.78-9.36,1.19-13.62-.66-4.71-2.39-8.87-5.07-12.29-2.05-2.66-5.25-5.65-10.07-7.66-.97-2.7-2.32-5.18-4.05-7.37-3.69-4.79-10.76-10.57-23.49-10.87h-105s.14-.52.14-.52h-134.34s-1.63.26-1.91.31h-144.09l.09-.31h-134.34l-1.06.17c-3.2.51-6.32,1.21-9.28,2.1-1.92.58-3.78,1.29-5.56,2.13l1.1-3.98h-62.96l.03-.1h-140.97l.17-.62h-161.27l-1.6,5.98c-4.07-2.77-9.71-4.97-17.44-5.15h-110.65s.12-.52.12-.52h-133.7l-1.06.17c-3.18.5-6.3,1.2-9.28,2.09-1.9.56-3.73,1.25-5.49,2.07l1.13-4.01h-162.07l-2.37,8.64c-4.06-4.12-10.73-8.18-21.35-8.43h-110.64s.12-.52.12-.52h-133.71l-1.06.17c-3.18.5-6.3,1.2-9.28,2.09-1.65.49-3.24,1.07-4.78,1.75l1.12-4H74.61l-1.06.17c-3.19.51-6.32,1.21-9.28,2.1-3.64,1.09-7.04,2.67-10.12,4.68-2.77,1.81-5.3,3.99-7.54,6.49-2.49,2.79-4.54,6.17-6.09,10.04l-.28.71-28.32,103.6h22.01l-3.11,11.37h219.57l3.1-11.37h14.61l-3.12,11.37h133.96l7.75-28.47,6.47,17.09h13.19l4.3,11.37h115.5l11.29-41.27h55.74l-8.17,29.9h22.01l-3.11,11.37h71.22l3.1-11.37h14.61l-3.12,11.37h133.97l7.75-28.47,6.47,17.1h13.19l4.3,11.37h72.07l-16.09-42.41c3.09-1.06,5.72-2.65,7.86-4.75,2.77-2.67,4.88-6.2,6.27-10.49l.09-.26,5.93-21.85h11.05l-18.78,68.4h22.02l-3.12,11.37h71.33l3.12-11.37h20.87l-3.12,11.37h71.33l11.29-41.27h55.76l-8.22,29.9h22.03l-3.13,11.37h282.71l3.11-11.37h8.85l6.98,11.37h256.41l7.75-28.47,6.47,17.09h13.19l4.3,11.37h72.07l-16.09-42.41c3.09-1.06,5.72-2.65,7.86-4.75,2.77-2.67,4.88-6.2,6.27-10.49ZM123.43,69.77c.48-.03,1.05-.05,1.74-.05h53.54l-5.34,19.55h-55.17l5.24-19.5ZM1359.59,69.77c.48-.03,1.05-.04,1.74-.04h53.6l-5.37,19.55h-55.21l5.24-19.51Z"/>
    <path class="cls-10" d="M486.54,93.26c1.44-1.37,2.57-3.32,3.39-5.85l7.8-28.75c.96-3.28,1.25-6.28.87-8.98-.38-2.7-1.32-5.01-2.82-6.93-2.74-3.56-7.05-5.41-12.94-5.54h-112.93l-27.41,99.99h47.74l9.75-35.83-10.16-4.93,33.16-.21,15.5,40.96h47.74l-15.5-40.86h6.78c4.17-.21,7.19-1.23,9.03-3.08ZM448.97,62.87l-3.8,13.55h-32.54l-.1.1h-5.65l5.13-18.99h49.69l-12.73,5.34ZM355.24,36.69h-115.29c-2.6.41-5.12.97-7.55,1.69-2.43.72-4.64,1.73-6.62,3.03-1.78,1.16-3.37,2.55-4.77,4.16-1.4,1.61-2.58,3.61-3.54,6.01l-23.41,85.62h47.64l10.06-36.96-13.04-3.8h52.36l-11.19,40.76h47.64l21.97-79.87,5.75-20.63ZM300.82,60.73l-4.21,15.59h-38.4l2.67-9.81c.96-3.44,2.53-5.71,4.72-6.81.96-.55,2.09-.91,3.39-1.08,1.3-.17,2.81-.26,4.52-.26h37.37l-10.06,2.37ZM86.98,116.56h98.04l-5.75,20.64H45.71l23.41-85.62c.96-2.4,2.16-4.4,3.59-6.01,1.44-1.61,3.04-2.99,4.83-4.16,1.98-1.3,4.17-2.31,6.57-3.03,2.39-.72,4.89-1.28,7.49-1.69h115.29l-6.06,21.66h-75.66c-1.71,0-3.22.09-4.52.26-1.3.17-2.43.53-3.39,1.08-2.05,1.1-3.63,3.36-4.72,6.79l-12.22,45.46-13.35,4.63ZM940.51,42.75c-2.74-3.56-7.05-5.41-12.94-5.54h-112.93l-27.41,99.99h47.74l9.75-35.83-10.16-4.93,33.16-.21,15.5,40.96h47.74l-15.5-40.86h6.78c4.17-.21,7.19-1.23,9.04-3.08,1.44-1.37,2.57-3.32,3.39-5.85l7.8-28.75c.96-3.28,1.25-6.28.87-8.98-.38-2.7-1.32-5.01-2.82-6.93ZM893.7,62.87l-3.8,13.55h-32.54l-.1.1h-5.65l5.13-18.99h49.69l-12.73,5.34ZM1084.34,57.43h-37.16l-21.87,79.77h-47.74l20.64-75.15,14.37-4.62h-60.88l5.65-21.05h132.85l-5.85,21.05ZM644.64,60.1c1.03-3.9,2.05-7.75,3.08-11.55s2.09-7.65,3.18-11.55h-133.67l-27.51,100.2h47.74l11.29-41.27h69.6c3.01,0,5.94-.85,8.78-2.57,2.84-1.71,5.32-3.8,7.44-6.26,1.23-1.37,2.27-2.82,3.13-4.36.85-1.54,1.52-3.1,2-4.67l4.93-17.96ZM596.49,61.64l-2.46,9.04c-.34,1.16-.72,2.07-1.13,2.72-.41.65-.89,1.15-1.44,1.49-1.03.69-2.23,1.03-3.59,1.03h-33.67l5.13-18.58h51.54l-14.37,4.31ZM799.97,36.69h-115.29c-2.6.41-5.12.97-7.55,1.69-2.43.72-4.64,1.73-6.62,3.03-1.78,1.16-3.37,2.55-4.77,4.16-1.4,1.61-2.58,3.61-3.54,6.01l-23.41,85.62h47.64l10.06-36.96-13.04-3.8h52.36l-11.19,40.76h47.64l21.97-79.87,5.75-20.63ZM745.56,60.73l-4.21,15.59h-38.39l2.67-9.81c.96-3.44,2.53-5.71,4.72-6.81.96-.55,2.09-.91,3.39-1.08,1.3-.17,2.81-.26,4.52-.26h37.37l-10.06,2.37ZM1605.66,116.56h95.78l-5.75,20.64h-133.46l23.41-85.62c.96-2.4,2.14-4.4,3.54-6.01,1.4-1.61,2.99-2.99,4.77-4.16,1.98-1.3,4.17-2.31,6.57-3.03,2.4-.72,4.89-1.28,7.49-1.69h115.29l-6.06,21.66h-75.66c-1.71,0-3.22.09-4.52.26-1.3.17-2.43.54-3.39,1.08-1.09.55-2.02,1.38-2.77,2.48-.75,1.1-1.37,2.55-1.85,4.34l-2.57,9.4h85.93l-5.54,20.02h-85.83l-4.52,16.84-10.88,3.8ZM1528.66,86.9l31,50.3h-47.74l-23.51-38.29-10.78-2.67,9.75,6.47-9.44,34.49h-47.74l27.51-100.2h47.64l-7.6,27.72,28.64-27.72h53.18l-50.92,49.89ZM1861.65,49.68c-.38-2.7-1.32-5.01-2.82-6.93-2.74-3.56-7.05-5.41-12.94-5.54h-112.93l-27.41,99.99h47.74l9.75-35.83-10.16-4.93,33.16-.21,15.5,40.96h47.74l-15.5-40.86h6.78c4.17-.21,7.19-1.23,9.04-3.08,1.44-1.37,2.57-3.32,3.39-5.85l7.8-28.75c.96-3.28,1.25-6.28.87-8.98ZM1812.01,62.87l-3.8,13.55h-32.54l-.1.1h-5.65l5.13-18.99h49.69l-12.73,5.34ZM1293.98,37.11l-27.51,100.09h-47.64l27.51-100.09h47.64ZM1224.68,60.1c1.03-3.9,2.05-7.75,3.08-11.55,1.03-3.8,2.09-7.65,3.18-11.55h-133.67l-27.51,100.2h47.74l11.29-41.27h69.6c3.01,0,5.94-.85,8.78-2.57,2.84-1.71,5.32-3.8,7.44-6.26,1.23-1.37,2.28-2.82,3.13-4.36.85-1.54,1.52-3.1,2-4.67l4.93-17.96ZM1176.53,61.64l-2.46,9.04c-.34,1.16-.72,2.07-1.13,2.72-.41.65-.89,1.15-1.44,1.49-1.03.69-2.23,1.03-3.59,1.03h-33.67l5.13-18.58h51.54l-14.37,4.31ZM1323.13,116.56h98.04l-5.75,20.64h-133.56l23.41-85.62c.96-2.4,2.16-4.4,3.59-6.01,1.44-1.61,3.04-2.99,4.82-4.16,1.98-1.3,4.17-2.31,6.57-3.03,2.4-.72,4.89-1.28,7.5-1.69h115.29l-6.06,21.66h-75.66c-1.71,0-3.22.09-4.52.26-1.3.17-2.43.53-3.39,1.08-2.05,1.1-3.63,3.36-4.72,6.79l-12.22,45.46-13.35,4.63Z"/>
    <g>
      <g id="White">
        <path class="cls-6" d="M421.01,125.83l-15.5-40.95-21.81.13,3.08,1.49-10.71,39.33h-52.46l28.66-104.54h114.66c6.63.15,11.57,2.32,14.74,6.43,1.74,2.21,2.84,4.91,3.27,8,.42,3.01.1,6.36-.94,9.93l-7.79,28.7c-.97,2.99-2.31,5.28-4.01,6.9-2.21,2.21-5.75,3.47-10.49,3.7h-3.59s15.5,40.86,15.5,40.86h-52.6ZM395.66,60.61l.1-.1h31.77l3.63-12.95,3.32-1.39h-36.64l-3.9,14.45h1.73ZM260.98,125.83l11.19-40.76h-33.57l-11.1,40.76h-52.35l24.23-88.62.05-.12c1.05-2.62,2.37-4.86,3.94-6.66,1.54-1.76,3.3-3.3,5.24-4.57,2.16-1.42,4.59-2.53,7.22-3.31,2.51-.74,5.15-1.33,7.84-1.76l.18-.03h118.36l-.7,2.88-5.75,20.63-22.43,81.53h-52.35ZM278.96,60.4l3.62-13.42h-24.98c-1.6,0-3.02.08-4.22.24-1,.13-1.86.4-2.55.8l-.11.06c-1.58.8-2.78,2.61-3.55,5.39l-1.88,6.93h33.68ZM26.81,125.83l24.23-88.62.05-.12c1.05-2.63,2.4-4.87,4.01-6.68,1.57-1.75,3.34-3.28,5.28-4.55,2.16-1.42,4.57-2.53,7.16-3.3,2.48-.74,5.1-1.34,7.79-1.76l.18-.03h118.47l-7.33,26.21h-77.39c-1.6,0-3.02.08-4.22.24-1,.13-1.86.4-2.56.8-1.56.83-2.78,2.68-3.68,5.51l-12.5,46.52-1.73.6h87.53l-7.02,25.18H26.81Z"/>
        <path class="cls-6" d="M958.67,125.83l21.75-79.21,1.73-.56h-49.34l6.87-25.59h137.58l-7.12,25.59h-37.16l-21.87,79.77h-52.46ZM865.74,125.83l-15.5-40.95-21.81.13,3.08,1.49-10.7,39.33h-52.46l28.66-104.54h114.66c6.63.15,11.57,2.32,14.74,6.43,1.74,2.21,2.84,4.91,3.27,8,.42,3.02.1,6.36-.94,9.93l-7.79,28.7c-.97,2.99-2.31,5.28-4.01,6.9-2.21,2.21-5.76,3.47-10.49,3.71h-3.59s15.5,40.86,15.5,40.86h-52.6ZM840.39,60.61l.1-.1h31.77l3.63-12.95,3.32-1.39h-36.64l-3.9,14.45h1.73ZM705.71,125.83l11.19-40.76h-33.56l-11.1,40.76h-52.35l24.23-88.62.05-.12c1.05-2.62,2.37-4.86,3.94-6.66,1.54-1.76,3.3-3.3,5.24-4.57,2.16-1.42,4.59-2.53,7.22-3.31,2.51-.74,5.14-1.33,7.84-1.76l.18-.03h118.36l-.7,2.88-5.75,20.63-22.43,81.53h-52.35ZM723.69,60.4l3.62-13.42h-24.98c-1.6,0-3.02.08-4.22.24-1,.13-1.86.4-2.55.8l-.11.06c-1.58.8-2.78,2.61-3.55,5.39l-1.88,6.93h33.68ZM470.82,125.83l28.76-104.75h138.4l-.81,2.89c-1.09,3.89-2.15,7.74-3.18,11.53-1.03,3.79-2.05,7.64-3.08,11.54l-4.93,17.99c-.54,1.78-1.28,3.5-2.21,5.17-.94,1.69-2.09,3.29-3.43,4.78-2.24,2.6-4.93,4.86-7.96,6.69-3.18,1.92-6.53,2.89-9.95,2.89h-67.87l-11.29,41.27h-52.46ZM571.95,59.99c.92,0,1.68-.21,2.33-.65.31-.19.55-.45.78-.81.2-.32.52-.95.87-2.15l2.78-10.21.74-.22h-34.31l-3.88,14.03h30.69Z"/>
        <path class="cls-6" d="M1784.05,125.83l-15.5-40.95-21.81.14,3.07,1.49-10.7,39.33h-52.46l28.66-104.54h114.66c6.63.15,11.57,2.32,14.74,6.43,1.74,2.21,2.84,4.91,3.27,8,.42,3.02.1,6.36-.94,9.93l-7.79,28.7c-.97,2.99-2.31,5.28-4.01,6.9-2.21,2.21-5.76,3.47-10.49,3.7h-3.59s15.5,40.86,15.5,40.86h-52.6ZM1758.7,60.61l.1-.1h31.77l3.63-12.95,3.32-1.39h-36.65l-3.9,14.45h1.73ZM1494.74,125.83l-21.42-34.89-9.55,34.89h-52.46l28.76-104.75h52.35l-6.19,22.58,23.33-22.58h59.67l-53.6,52.52,29.08,47.18,22.85-83.58.05-.12c1.05-2.62,2.37-4.86,3.94-6.66,1.53-1.76,3.3-3.3,5.24-4.57,2.16-1.42,4.57-2.53,7.16-3.3,2.48-.74,5.1-1.34,7.79-1.76l.18-.03h118.47l-7.33,26.21h-77.39c-1.6,0-3.02.08-4.22.24-.99.13-1.86.4-2.55.8l-.11.06c-.76.38-1.38.95-1.92,1.73-.61.89-1.12,2.11-1.53,3.64l-1.79,6.54h85.94l-6.8,24.57h-85.81l-4.32,16.09h85.95l-7.02,25.18h-186.76ZM1262.97,125.83l24.23-88.62.05-.12c1.05-2.63,2.4-4.88,4.01-6.68,1.57-1.75,3.34-3.28,5.28-4.54,2.16-1.42,4.57-2.53,7.16-3.3,2.48-.74,5.1-1.34,7.79-1.76l.18-.03h118.47l-7.33,26.21h-77.39c-1.6,0-3.02.08-4.22.24-1,.13-1.86.4-2.56.8-1.56.83-2.78,2.68-3.68,5.51l-12.5,46.52-1.73.6h87.54l-7.02,25.18h-138.27ZM1199.93,125.83l28.76-104.64h52.35l-28.76,104.64h-52.35ZM1050.86,125.83l28.76-104.75h138.4l-.81,2.89c-1.09,3.89-2.15,7.74-3.18,11.53-1.03,3.79-2.05,7.64-3.08,11.54l-4.93,17.99c-.54,1.78-1.28,3.5-2.21,5.17-.94,1.69-2.09,3.29-3.43,4.78-2.24,2.6-4.93,4.86-7.96,6.69-3.18,1.92-6.53,2.89-9.95,2.89h-67.87l-11.29,41.27h-52.46ZM1151.99,59.99c.92,0,1.68-.21,2.33-.65.31-.19.55-.45.78-.81.2-.32.52-.95.87-2.15l2.78-10.21.74-.22h-34.31l-3.88,14.03h30.69Z"/>
      </g>
      <g class="cls-9">
        <path class="cls-7" d="M71.06,101.78h98.04l-5.75,20.64H29.79l23.41-85.62c.96-2.4,2.16-4.4,3.59-6.01,1.44-1.61,3.04-2.99,4.83-4.16,1.98-1.3,4.17-2.31,6.57-3.03,2.39-.72,4.89-1.28,7.49-1.69h115.29l-6.06,21.66h-75.66c-1.71,0-3.22.09-4.52.26-1.3.17-2.43.53-3.39,1.08-2.05,1.1-3.63,3.36-4.72,6.79l-12.22,45.46-13.35,4.63ZM333.57,42.55l-21.97,79.87h-47.64l11.19-40.76h-52.36l13.04,3.8-10.06,36.96h-47.64l23.41-85.62c.96-2.4,2.14-4.4,3.54-6.01,1.4-1.61,2.99-2.99,4.77-4.16,1.98-1.3,4.19-2.31,6.62-3.03,2.43-.72,4.94-1.28,7.55-1.69h115.29l-5.75,20.63ZM294.97,43.57h-37.37c-1.71,0-3.22.09-4.52.26-1.3.17-2.43.54-3.39,1.08-2.19,1.1-3.76,3.37-4.72,6.81l-2.67,9.81h38.4l4.21-15.59,10.06-2.37ZM481.81,43.88l-7.8,28.75c-.82,2.53-1.95,4.48-3.39,5.85-1.85,1.85-4.86,2.87-9.03,3.08h-6.78l15.5,40.86h-47.74l-15.5-40.96-33.16.21,10.16,4.93-9.75,35.83h-47.74l27.41-99.99h112.93c5.89.14,10.2,1.99,12.94,5.54,1.5,1.92,2.45,4.23,2.82,6.93.38,2.7.08,5.7-.87,8.98ZM445.78,42.75h-49.69l-5.13,18.99h5.65l.1-.1h32.54l3.8-13.55,12.73-5.34Z"/>
        <path d="M79.02,97.23h98.04l-5.75,20.64H37.75l23.41-85.62c.96-2.4,2.16-4.4,3.59-6.01,1.44-1.61,3.04-2.99,4.83-4.16,1.98-1.3,4.17-2.31,6.57-3.03,2.39-.72,4.89-1.28,7.49-1.69h115.29l-6.06,21.66h-75.66c-1.71,0-3.22.09-4.52.26-1.3.17-2.43.53-3.39,1.08-2.05,1.1-3.63,3.36-4.72,6.79l-12.22,45.46-13.35,4.63ZM341.53,38l-21.97,79.87h-47.64l11.19-40.76h-52.36l13.04,3.8-10.06,36.96h-47.64l23.41-85.62c.96-2.4,2.14-4.4,3.54-6.01,1.4-1.61,2.99-2.99,4.77-4.16,1.98-1.3,4.19-2.31,6.62-3.03,2.43-.72,4.94-1.28,7.55-1.69h115.29l-5.75,20.63ZM302.93,39.03h-37.37c-1.71,0-3.22.09-4.52.26-1.3.17-2.43.54-3.39,1.08-2.19,1.1-3.76,3.37-4.72,6.81l-2.67,9.81h38.4l4.21-15.59,10.06-2.37ZM489.77,39.33l-7.8,28.75c-.82,2.53-1.95,4.48-3.39,5.85-1.85,1.85-4.86,2.87-9.03,3.08h-6.78l15.5,40.86h-47.74l-15.5-40.96-33.16.21,10.16,4.93-9.75,35.83h-47.74l27.41-99.99h112.93c5.89.14,10.2,1.99,12.94,5.54,1.5,1.92,2.45,4.23,2.82,6.93.38,2.7.08,5.7-.87,8.98ZM453.74,38.2h-49.69l-5.13,18.99h5.65l.1-.1h32.54l3.8-13.55,12.73-5.34Z"/>
      </g>
      <g class="cls-5">
        <path class="cls-3" d="M628.72,46.46c1.03-3.9,2.05-7.75,3.08-11.55s2.09-7.65,3.18-11.55h-133.67l-27.51,100.2h47.74l11.29-41.27h69.6c3.01,0,5.94-.85,8.78-2.57,2.84-1.71,5.32-3.8,7.44-6.26,1.23-1.37,2.27-2.82,3.13-4.36.85-1.54,1.52-3.1,2-4.67l4.93-17.96ZM580.57,48l-2.46,9.04c-.34,1.16-.72,2.07-1.13,2.72-.41.65-.89,1.15-1.44,1.49-1.03.69-2.23,1.03-3.59,1.03h-33.67l5.13-18.58h51.54l-14.37,4.31ZM784.05,23.05h-115.29c-2.6.41-5.12.97-7.55,1.69-2.43.72-4.64,1.73-6.62,3.03-1.78,1.16-3.37,2.55-4.77,4.16-1.4,1.61-2.58,3.61-3.54,6.01l-23.41,85.62h47.64l10.06-36.96-13.04-3.8h52.36l-11.19,40.76h47.64l21.97-79.87,5.75-20.63ZM729.64,47.09l-4.21,15.59h-38.39l2.67-9.81c.96-3.44,2.53-5.71,4.72-6.81.96-.55,2.09-.91,3.39-1.08,1.3-.17,2.81-.26,4.52-.26h37.37l-10.06,2.37ZM924.59,29.11c-2.74-3.56-7.05-5.41-12.94-5.54h-112.93l-27.41,99.99h47.74l9.75-35.83-10.16-4.93,33.16-.21,15.5,40.96h47.74l-15.5-40.86h6.78c4.17-.21,7.19-1.23,9.04-3.08,1.44-1.37,2.57-3.32,3.39-5.85l7.8-28.75c.96-3.28,1.25-6.28.87-8.98-.38-2.7-1.32-5.01-2.82-6.93ZM877.78,49.23l-3.8,13.55h-32.54l-.1.1h-5.65l5.13-18.99h49.69l-12.73,5.34ZM1074.28,22.74l-5.85,21.05h-37.16l-21.87,79.77h-47.74l20.64-75.15,14.37-4.62h-60.88l5.65-21.05h132.85Z"/>
        <path class="cls-1" d="M635.54,40.77c1.03-3.9,2.05-7.75,3.08-11.55s2.09-7.65,3.18-11.55h-133.67l-27.51,100.2h47.74l11.29-41.27h69.6c3.01,0,5.94-.85,8.78-2.57,2.84-1.71,5.32-3.8,7.44-6.26,1.23-1.37,2.27-2.82,3.13-4.36.85-1.54,1.52-3.1,2-4.67l4.93-17.96ZM587.4,42.31l-2.46,9.04c-.34,1.16-.72,2.07-1.13,2.72-.41.65-.89,1.15-1.44,1.49-1.03.69-2.23,1.03-3.59,1.03h-33.67l5.13-18.58h51.54l-14.37,4.31ZM790.87,17.36h-115.29c-2.6.41-5.12.97-7.55,1.69-2.43.72-4.64,1.73-6.62,3.03-1.78,1.16-3.37,2.55-4.77,4.16-1.4,1.61-2.58,3.61-3.54,6.01l-23.41,85.62h47.64l10.06-36.96-13.04-3.8h52.36l-11.19,40.76h47.64l21.97-79.87,5.75-20.63ZM736.46,41.4l-4.21,15.59h-38.39l2.67-9.81c.96-3.44,2.53-5.71,4.72-6.81.96-.55,2.09-.91,3.39-1.08,1.3-.17,2.81-.26,4.52-.26h37.37l-10.06,2.37ZM931.42,23.42c-2.74-3.56-7.05-5.41-12.94-5.54h-112.93l-27.41,99.99h47.74l9.75-35.83-10.16-4.93,33.16-.21,15.5,40.96h47.74l-15.5-40.86h6.78c4.17-.21,7.19-1.23,9.04-3.08,1.44-1.37,2.57-3.32,3.39-5.85l7.8-28.75c.96-3.28,1.25-6.28.87-8.98-.38-2.7-1.32-5.01-2.82-6.93ZM884.6,43.54l-3.8,13.55h-32.54l-.1.1h-5.65l5.13-18.99h49.69l-12.73,5.34ZM1081.1,17.06l-5.85,21.05h-37.16l-21.87,79.77h-47.74l20.64-75.15,14.37-4.62h-60.88l5.65-21.05h132.85Z"/>
      </g>
      <g class="cls-8">
        <path class="cls-7" d="M1208.76,46.46c1.03-3.9,2.05-7.75,3.08-11.55,1.03-3.8,2.09-7.65,3.18-11.55h-133.67l-27.51,100.2h47.74l11.29-41.27h69.6c3.01,0,5.94-.85,8.78-2.57,2.84-1.71,5.32-3.8,7.44-6.26,1.23-1.37,2.28-2.82,3.13-4.36.85-1.54,1.52-3.1,2-4.67l4.93-17.96ZM1160.61,48l-2.46,9.04c-.34,1.16-.72,2.07-1.13,2.72-.41.65-.89,1.15-1.44,1.49-1.03.69-2.23,1.03-3.59,1.03h-33.67l5.13-18.58h51.54l-14.37,4.31ZM1278.06,23.46l-27.51,100.09h-47.64l27.51-100.09h47.64ZM1307.21,102.92h98.04l-5.75,20.64h-133.56l23.41-85.62c.96-2.4,2.16-4.4,3.59-6.01,1.44-1.61,3.04-2.99,4.82-4.16,1.98-1.3,4.17-2.31,6.57-3.03,2.4-.72,4.89-1.28,7.5-1.69h115.29l-6.06,21.66h-75.66c-1.71,0-3.22.09-4.52.26-1.3.17-2.43.53-3.39,1.08-2.05,1.1-3.63,3.36-4.72,6.79l-12.22,45.46-13.35,4.63ZM1512.74,73.25l31,50.3h-47.74l-23.51-38.29-10.78-2.67,9.75,6.47-9.44,34.49h-47.74l27.51-100.2h47.64l-7.6,27.72,28.64-27.72h53.18l-50.92,49.89ZM1589.74,102.92h95.78l-5.75,20.64h-133.46l23.41-85.62c.96-2.4,2.14-4.4,3.54-6.01,1.4-1.61,2.99-2.99,4.77-4.16,1.98-1.3,4.17-2.31,6.57-3.03,2.4-.72,4.89-1.28,7.49-1.69h115.29l-6.06,21.66h-75.66c-1.71,0-3.22.09-4.52.26-1.3.17-2.43.54-3.39,1.08-1.09.55-2.02,1.38-2.77,2.48-.75,1.1-1.37,2.55-1.85,4.34l-2.57,9.4h85.93l-5.54,20.02h-85.83l-4.52,16.84-10.88,3.8ZM1845.73,36.04c-.38-2.7-1.32-5.01-2.82-6.93-2.74-3.56-7.05-5.41-12.94-5.54h-112.93l-27.41,99.99h47.74l9.75-35.83-10.16-4.93,33.16-.21,15.5,40.96h47.74l-15.5-40.86h6.78c4.17-.21,7.19-1.23,9.04-3.08,1.44-1.37,2.57-3.32,3.39-5.85l7.8-28.75c.96-3.28,1.25-6.28.87-8.98ZM1796.09,49.23l-3.8,13.55h-32.54l-.1.1h-5.65l5.13-18.99h49.69l-12.73,5.34Z"/>
        <path d="M1215.58,40.77c1.03-3.9,2.05-7.75,3.08-11.55,1.03-3.8,2.09-7.65,3.18-11.55h-133.67l-27.51,100.2h47.74l11.29-41.27h69.6c3.01,0,5.94-.85,8.78-2.57,2.84-1.71,5.32-3.8,7.44-6.26,1.23-1.37,2.28-2.82,3.13-4.36.85-1.54,1.52-3.1,2-4.67l4.93-17.96ZM1167.44,42.31l-2.46,9.04c-.34,1.16-.72,2.07-1.13,2.72-.41.65-.89,1.15-1.44,1.49-1.03.69-2.23,1.03-3.59,1.03h-33.67l5.13-18.58h51.54l-14.37,4.31ZM1284.88,17.78l-27.51,100.09h-47.64l27.51-100.09h47.64ZM1314.04,97.23h98.04l-5.75,20.64h-133.56l23.41-85.62c.96-2.4,2.16-4.4,3.59-6.01,1.44-1.61,3.04-2.99,4.82-4.16,1.98-1.3,4.17-2.31,6.57-3.03,2.4-.72,4.89-1.28,7.5-1.69h115.29l-6.06,21.66h-75.66c-1.71,0-3.22.09-4.52.26-1.3.17-2.43.53-3.39,1.08-2.05,1.1-3.63,3.36-4.72,6.79l-12.22,45.46-13.35,4.63ZM1519.57,67.57l31,50.3h-47.74l-23.51-38.29-10.78-2.67,9.75,6.47-9.44,34.49h-47.74l27.51-100.2h47.64l-7.6,27.72,28.64-27.72h53.18l-50.92,49.89ZM1596.56,97.23h95.78l-5.75,20.64h-133.46l23.41-85.62c.96-2.4,2.14-4.4,3.54-6.01,1.4-1.61,2.99-2.99,4.77-4.16,1.98-1.3,4.17-2.31,6.57-3.03,2.4-.72,4.89-1.28,7.49-1.69h115.29l-6.06,21.66h-75.66c-1.71,0-3.22.09-4.52.26-1.3.17-2.43.54-3.39,1.08-1.09.55-2.02,1.38-2.77,2.48-.75,1.1-1.37,2.55-1.85,4.34l-2.57,9.4h85.93l-5.54,20.02h-85.83l-4.52,16.84-10.88,3.8ZM1852.55,30.35c-.38-2.7-1.32-5.01-2.82-6.93-2.74-3.56-7.05-5.41-12.94-5.54h-112.93l-27.41,99.99h47.74l9.75-35.83-10.16-4.93,33.16-.21,15.5,40.96h47.74l-15.5-40.86h6.78c4.17-.21,7.19-1.23,9.04-3.08,1.44-1.37,2.57-3.32,3.39-5.85l7.8-28.75c.96-3.28,1.25-6.28.87-8.98ZM1802.91,43.54l-3.8,13.55h-32.54l-.1.1h-5.65l5.13-18.99h49.69l-12.73,5.34Z"/>
      </g>
    </g>
  </g>
</svg>